# xmcd
#
# Track frame offsets:
# 150
# 44049
# 119367
# 135294
# 149767
# 161553
# 174863
# 225871
# 240794
# 262183
#
# Disc length: 3738 seconds
#
#
# Revision: 2
# Processed by: cddbd v1.5.1PL2 Copyright (c) Steve Scherf et al.
# Submitted via: FreeRIP 2.944 
#
DISCID=800e980a
DTITLE=Stevie Ray Vaughan - Alpine Valley - Disc 2
DYEAR=1990
DGENRE=Bluesrock
TTITLE0=Voodoo Chile
TTITLE1=Sweet Home Chicago
TTITLE2=Pride And Joy
TTITLE3=Mary Had A Little Lamb
TTITLE4=Lovestruck Baby
TTITLE5=Testify
TTITLE6=Voodoo Chile
TTITLE7=Mary Had A Little Lamb
TTITLE8=Couldn't Stand The Weather
TTITLE9=Cold Shot
EXTD=Bootleg!
EXTT0=
EXTT1=
EXTT2=
EXTT3=
EXTT4=
EXTT5=
EXTT6=
EXTT7=
EXTT8=
EXTT9=
PLAYORDER=
